<svg width="156" height="28" viewBox="0 0 156 28" fill="none" xmlns="http://www.w3.org/2000/svg">
<mask id="mask0_363_1160" style="mask-type:alpha" maskUnits="userSpaceOnUse" x="0" y="0" width="156" height="28">
<g clip-path="url(#clip0_363_1160)">
<path d="M13.3537 1.55395C13.5928 0.979046 14.4072 0.979045 14.6463 1.55395L17.5389 8.50842C17.6397 8.75078 17.8676 8.91638 18.1292 8.93736L25.6372 9.53927C26.2578 9.58903 26.5095 10.3636 26.0366 10.7686L20.3164 15.6687C20.117 15.8394 20.03 16.1074 20.0909 16.3627L21.8385 23.6892C21.983 24.2948 21.3241 24.7735 20.7927 24.449L14.3649 20.5229C14.1409 20.386 13.8591 20.386 13.6351 20.5229L7.20728 24.449C6.67591 24.7735 6.01704 24.2948 6.16151 23.6892L7.90914 16.3627C7.97005 16.1074 7.88298 15.8394 7.68363 15.6687L1.96338 10.7687C1.4905 10.3636 1.74217 9.58903 2.36283 9.53927L9.87076 8.93736C10.1324 8.91638 10.3603 8.75078 10.4611 8.50842L13.3537 1.55395Z" fill="#EFF1F5"/>
<path d="M45.3537 1.55395C45.5928 0.979046 46.4072 0.979045 46.6463 1.55395L49.5389 8.50842C49.6397 8.75078 49.8676 8.91638 50.1292 8.93736L57.6372 9.53927C58.2578 9.58903 58.5095 10.3636 58.0366 10.7686L52.3164 15.6687C52.117 15.8394 52.03 16.1074 52.0909 16.3627L53.8385 23.6892C53.983 24.2948 53.3241 24.7735 52.7927 24.449L46.3649 20.5229C46.1409 20.386 45.8591 20.386 45.6351 20.5229L39.2073 24.449C38.6759 24.7735 38.017 24.2948 38.1615 23.6892L39.9091 16.3627C39.97 16.1074 39.883 15.8394 39.6836 15.6687L33.9634 10.7687C33.4905 10.3636 33.7422 9.58903 34.3628 9.53927L41.8708 8.93736C42.1324 8.91638 42.3603 8.75078 42.4611 8.50842L45.3537 1.55395Z" fill="#EFF1F5"/>
<path d="M77.3537 1.55395C77.5928 0.979046 78.4072 0.979045 78.6463 1.55395L81.5389 8.50842C81.6397 8.75078 81.8676 8.91638 82.1292 8.93736L89.6372 9.53927C90.2578 9.58903 90.5095 10.3636 90.0366 10.7686L84.3164 15.6687C84.117 15.8394 84.03 16.1074 84.0909 16.3627L85.8385 23.6892C85.983 24.2948 85.3241 24.7735 84.7927 24.449L78.3649 20.5229C78.1409 20.386 77.8591 20.386 77.6351 20.5229L71.2073 24.449C70.6759 24.7735 70.017 24.2948 70.1615 23.6892L71.9091 16.3627C71.97 16.1074 71.883 15.8394 71.6836 15.6687L65.9634 10.7687C65.4905 10.3636 65.7422 9.58903 66.3628 9.53927L73.8708 8.93736C74.1324 8.91638 74.3603 8.75078 74.4611 8.50842L77.3537 1.55395Z" fill="#EFF1F5"/>
<path d="M109.354 1.55395C109.593 0.979046 110.407 0.979045 110.646 1.55395L113.539 8.50842C113.64 8.75078 113.868 8.91638 114.129 8.93736L121.637 9.53927C122.258 9.58903 122.509 10.3636 122.037 10.7686L116.316 15.6687C116.117 15.8394 116.03 16.1074 116.091 16.3627L117.838 23.6892C117.983 24.2948 117.324 24.7735 116.793 24.449L110.365 20.5229C110.141 20.386 109.859 20.386 109.635 20.5229L103.207 24.449C102.676 24.7735 102.017 24.2948 102.162 23.6892L103.909 16.3627C103.97 16.1074 103.883 15.8394 103.684 15.6687L97.9634 10.7687C97.4905 10.3636 97.7422 9.58903 98.3628 9.53927L105.871 8.93736C106.132 8.91638 106.36 8.75078 106.461 8.50842L109.354 1.55395Z" fill="#EFF1F5"/>
<path d="M141.354 1.55395C141.593 0.979046 142.407 0.979045 142.646 1.55395L145.539 8.50842C145.64 8.75078 145.868 8.91638 146.129 8.93736L153.637 9.53927C154.258 9.58903 154.509 10.3636 154.037 10.7686L148.316 15.6687C148.117 15.8394 148.03 16.1074 148.091 16.3627L149.838 23.6892C149.983 24.2948 149.324 24.7735 148.793 24.449L142.365 20.5229C142.141 20.386 141.859 20.386 141.635 20.5229L135.207 24.449C134.676 24.7735 134.017 24.2948 134.162 23.6892L135.909 16.3627C135.97 16.1074 135.883 15.8394 135.684 15.6687L129.963 10.7687C129.491 10.3636 129.742 9.58903 130.363 9.53927L137.871 8.93736C138.132 8.91638 138.36 8.75078 138.461 8.50842L141.354 1.55395Z" fill="#EFF1F5"/>
</g>
</mask>
<g mask="url(#mask0_363_1160)">
<rect width="156" height="28" fill="#EFF1F5"/>
<rect x="1.72705" width="125.365" height="28" fill="#F6B400"/>
</g>
<defs>
<clipPath id="clip0_363_1160">
<rect width="156" height="28" fill="white"/>
</clipPath>
</defs>
</svg>
