<svg width="218" height="37" viewBox="0 0 218 37" fill="none" xmlns="http://www.w3.org/2000/svg">
<g clip-path="url(#clip0_329_4855)">
<path d="M148.441 23.6867C148.441 25.7487 148.05 27.503 147.268 28.9495C146.493 30.396 145.434 31.5009 144.092 32.2641C142.756 33.0212 141.254 33.3998 139.586 33.3998C137.906 33.3998 136.398 33.0181 135.062 32.2549C133.726 31.4916 132.671 30.3867 131.895 28.9403C131.12 27.4938 130.732 25.7426 130.732 23.6867C130.732 21.6247 131.12 19.8704 131.895 18.4239C132.671 16.9774 133.726 15.8756 135.062 15.1185C136.398 14.3553 137.906 13.9736 139.586 13.9736C141.254 13.9736 142.756 14.3553 144.092 15.1185C145.434 15.8756 146.493 16.9774 147.268 18.4239C148.05 19.8704 148.441 21.6247 148.441 23.6867ZM144.387 23.6867C144.387 22.351 144.187 21.2246 143.787 20.3074C143.393 19.3903 142.836 18.6948 142.116 18.2208C141.396 17.7468 140.553 17.5099 139.586 17.5099C138.62 17.5099 137.777 17.7468 137.057 18.2208C136.336 18.6948 135.776 19.3903 135.376 20.3074C134.982 21.2246 134.785 22.351 134.785 23.6867C134.785 25.0224 134.982 26.1488 135.376 27.066C135.776 27.9831 136.336 28.6787 137.057 29.1526C137.777 29.6266 138.62 29.8635 139.586 29.8635C140.553 29.8635 141.396 29.6266 142.116 29.1526C142.836 28.6787 143.393 27.9831 143.787 27.066C144.187 26.1488 144.387 25.0224 144.387 23.6867Z" fill="#125D56"/>
<path d="M116.375 33.1413V14.2322H128.895V17.5283H120.373V22.034H128.064V25.3302H120.373V33.1413H116.375Z" fill="#125D56"/>
<path d="M114.028 20.8522H109.984C109.91 20.329 109.759 19.8643 109.532 19.458C109.304 19.0456 109.011 18.6948 108.654 18.4055C108.297 18.1162 107.885 17.8946 107.417 17.7407C106.956 17.5868 106.454 17.5099 105.912 17.5099C104.934 17.5099 104.081 17.753 103.355 18.2393C102.628 18.7194 102.065 19.4211 101.665 20.3444C101.265 21.2615 101.065 22.3756 101.065 23.6867C101.065 25.0347 101.265 26.1673 101.665 27.0844C102.071 28.0016 102.638 28.694 103.364 29.1618C104.09 29.6296 104.931 29.8635 105.885 29.8635C106.42 29.8635 106.916 29.7928 107.371 29.6512C107.833 29.5096 108.242 29.3034 108.599 29.0326C108.956 28.7556 109.252 28.4201 109.485 28.0262C109.725 27.6323 109.892 27.1829 109.984 26.6782L114.028 26.6966C113.923 27.5645 113.662 28.4017 113.243 29.208C112.831 30.0082 112.274 30.7253 111.572 31.3593C110.877 31.9871 110.046 32.4857 109.079 32.855C108.119 33.2182 107.033 33.3998 105.82 33.3998C104.133 33.3998 102.625 33.0181 101.296 32.2549C99.9724 31.4916 98.926 30.3867 98.1566 28.9403C97.3933 27.4938 97.0117 25.7426 97.0117 23.6867C97.0117 21.6247 97.3995 19.8704 98.1751 18.4239C98.9506 16.9774 100.003 15.8756 101.333 15.1185C102.662 14.3553 104.158 13.9736 105.82 13.9736C106.916 13.9736 107.931 14.1275 108.867 14.4353C109.809 14.743 110.643 15.1924 111.369 15.7833C112.095 16.368 112.686 17.0851 113.142 17.9346C113.603 18.784 113.899 19.7565 114.028 20.8522Z" fill="#125D56"/>
<path d="M95.2285 18.9595V21.914H86.688V18.9595H95.2285ZM88.6269 15.5618H92.5601V28.7834C92.5601 29.1465 92.6155 29.4297 92.7263 29.6328C92.8371 29.8298 92.991 29.9683 93.188 30.0483C93.3911 30.1283 93.625 30.1683 93.8897 30.1683C94.0744 30.1683 94.259 30.1529 94.4437 30.1221C94.6283 30.0852 94.7699 30.0575 94.8684 30.039L95.487 32.9659C95.29 33.0274 95.013 33.0982 94.656 33.1782C94.299 33.2644 93.8651 33.3167 93.3542 33.3352C92.4063 33.3721 91.5753 33.246 90.8613 32.9567C90.1534 32.6674 89.6025 32.218 89.2086 31.6086C88.8146 30.9993 88.6208 30.2299 88.6269 29.3004V15.5618Z" fill="#125D56"/>
<path d="M85.4051 23.0034L81.8042 23.2249C81.7427 22.9172 81.6104 22.6402 81.4072 22.394C81.2041 22.1416 80.9363 21.9416 80.604 21.7938C80.2777 21.64 79.8869 21.563 79.4314 21.563C78.822 21.563 78.308 21.6923 77.8895 21.9508C77.4709 22.2032 77.2616 22.5417 77.2616 22.9664C77.2616 23.305 77.397 23.5912 77.6679 23.8251C77.9387 24.059 78.4034 24.2467 79.0621 24.3883L81.6288 24.9053C83.0076 25.1885 84.0355 25.644 84.7126 26.2718C85.3897 26.8997 85.7283 27.7245 85.7283 28.7462C85.7283 29.6757 85.4543 30.4913 84.9065 31.193C84.3649 31.8947 83.6201 32.4425 82.6721 32.8364C81.7304 33.2242 80.644 33.4181 79.4129 33.4181C77.5355 33.4181 76.0398 33.0273 74.9257 32.2455C73.8177 31.4577 73.1684 30.3866 72.9775 29.0325L76.8461 28.8293C76.9631 29.4018 77.2462 29.8388 77.6956 30.1404C78.1449 30.4359 78.7204 30.5836 79.4221 30.5836C80.1115 30.5836 80.6655 30.4513 81.0841 30.1866C81.5088 29.9158 81.7242 29.568 81.7304 29.1433C81.7242 28.7863 81.5734 28.4939 81.278 28.2661C80.9825 28.0322 80.527 27.8537 79.9115 27.7306L77.4555 27.2413C76.0706 26.9643 75.0396 26.4842 74.3625 25.8009C73.6916 25.1177 73.3561 24.2467 73.3561 23.188C73.3561 22.277 73.6023 21.4922 74.0947 20.8336C74.5933 20.175 75.2919 19.6672 76.1906 19.3102C77.0954 18.9532 78.1541 18.7747 79.3667 18.7747C81.1579 18.7747 82.5675 19.1532 83.5954 19.9103C84.6295 20.6674 85.2327 21.6984 85.4051 23.0034Z" fill="#125D56"/>
<path d="M65.0492 33.4181C63.5904 33.4181 62.3347 33.1227 61.2821 32.5318C60.2357 31.9347 59.4294 31.0914 58.8631 30.0019C58.2968 28.9063 58.0137 27.6106 58.0137 26.1149C58.0137 24.6561 58.2968 23.3757 58.8631 22.2739C59.4294 21.1721 60.2265 20.3135 61.2544 19.698C62.2885 19.0824 63.5011 18.7747 64.8922 18.7747C65.8278 18.7747 66.6988 18.9255 67.5051 19.2271C68.3176 19.5225 69.0255 19.9688 69.6287 20.5659C70.2381 21.1629 70.7121 21.9139 71.0506 22.8187C71.3891 23.7174 71.5584 24.7699 71.5584 25.9764V27.0566H59.5833V24.6191H67.856C67.856 24.0528 67.7329 23.5512 67.4867 23.1141C67.2405 22.6771 66.8989 22.3355 66.4618 22.0893C66.031 21.8369 65.5293 21.7107 64.9569 21.7107C64.3598 21.7107 63.8304 21.8492 63.3688 22.1262C62.9133 22.3971 62.5563 22.7633 62.2978 23.2249C62.0392 23.6804 61.9069 24.1882 61.9007 24.7484V27.0659C61.9007 27.7676 62.03 28.3739 62.2885 28.8847C62.5532 29.3956 62.9256 29.7896 63.4057 30.0666C63.8858 30.3436 64.4552 30.482 65.1138 30.482C65.5508 30.482 65.9509 30.4205 66.3141 30.2974C66.6773 30.1743 66.9881 29.9896 67.2466 29.7434C67.5051 29.4972 67.7021 29.1956 67.8375 28.8386L71.4753 29.0786C71.2907 29.9527 70.9121 30.7159 70.3397 31.3684C69.7734 32.0147 69.0409 32.5194 68.1422 32.8826C67.2497 33.2396 66.2187 33.4181 65.0492 33.4181Z" fill="#125D56"/>
<path d="M41.9907 33.1413V14.2322H49.5617C50.9528 14.2322 52.1131 14.4384 53.0426 14.8508C53.972 15.2632 54.6706 15.8356 55.1385 16.5681C55.6063 17.2944 55.8402 18.1316 55.8402 19.0795C55.8402 19.8181 55.6924 20.4675 55.397 21.0276C55.1015 21.5816 54.6953 22.0371 54.1782 22.3941C53.6673 22.745 53.0826 22.9943 52.424 23.142V23.3266C53.1441 23.3574 53.8181 23.5605 54.446 23.936C55.08 24.3115 55.5939 24.8378 55.9879 25.5148C56.3818 26.1858 56.5788 26.986 56.5788 27.9154C56.5788 28.9187 56.3295 29.8143 55.8309 30.6022C55.3385 31.3839 54.6091 32.0025 53.6427 32.458C52.6763 32.9135 51.4853 33.1413 50.0696 33.1413H41.9907ZM45.9886 29.8728H49.2478C50.3619 29.8728 51.1744 29.6604 51.6853 29.2357C52.1962 28.8049 52.4517 28.2324 52.4517 27.5184C52.4517 26.9952 52.3255 26.5336 52.0731 26.1335C51.8207 25.7334 51.4607 25.4194 50.9929 25.1917C50.5312 24.9639 49.9803 24.8501 49.3402 24.8501H45.9886V29.8728ZM45.9886 22.1448H48.9524C49.5002 22.1448 49.9865 22.0494 50.4112 21.8586C50.842 21.6616 51.1806 21.3846 51.4268 21.0276C51.6792 20.6706 51.8054 20.2428 51.8054 19.7443C51.8054 19.061 51.5622 18.5101 51.076 18.0916C50.5958 17.673 49.9126 17.4637 49.0262 17.4637H45.9886V22.1448Z" fill="#125D56"/>
<path d="M209.626 33.4553C208.81 33.4553 207.972 33.3507 207.114 33.1414C206.256 32.9111 205.524 32.503 204.917 31.917C204.31 31.3309 203.943 30.4937 203.818 29.4054L206.016 28.5891C205.911 29.9705 206.193 30.9437 206.863 31.5088C207.554 32.0739 208.454 32.3565 209.563 32.3565C210.756 32.3565 211.635 32.0949 212.2 31.5716C212.765 31.0484 213.048 30.41 213.048 29.6565C213.048 29.0705 212.86 28.5891 212.483 28.2124C212.127 27.8147 211.478 27.4379 210.536 27.0821L208.747 26.3914C207.679 25.9728 206.853 25.3973 206.267 24.6647C205.681 23.9322 205.388 23.0531 205.388 22.0275C205.388 21.1903 205.597 20.3845 206.016 19.6101C206.434 18.8357 207.104 18.1974 208.025 17.695C208.946 17.1718 210.149 16.9102 211.635 16.9102C212.996 16.9102 214.115 17.1509 214.994 17.6322C215.894 18.0927 216.512 18.7101 216.847 19.4845C217.182 20.238 217.192 21.0648 216.878 21.9648L213.331 22.4671C213.791 21.0438 213.854 19.945 213.519 19.1706C213.184 18.3962 212.472 18.009 211.384 18.009C210.547 18.009 209.877 18.2392 209.375 18.6997C208.872 19.1601 208.621 19.788 208.621 20.5834C208.621 21.3578 208.831 21.9438 209.249 22.3415C209.689 22.7392 210.233 23.0636 210.882 23.3147L212.64 24.0054C213.749 24.445 214.628 25.0101 215.277 25.7008C215.947 26.3705 216.282 27.2914 216.282 28.4635C216.282 29.3635 216.041 30.1902 215.56 30.9437C215.099 31.6972 214.377 32.3042 213.393 32.7646C212.41 33.2251 211.154 33.4553 209.626 33.4553Z" fill="#125D56"/>
<path d="M197.357 10.788L197.514 9.90894H203.541L200.308 28.4006C200.036 29.8866 199.91 30.8703 199.931 31.3517C199.952 31.8122 200.119 32.0424 200.433 32.0424C200.726 32.0424 201.04 31.875 201.375 31.5401C201.71 31.2052 202.014 30.6401 202.286 29.8448L203.51 30.5354C203.05 31.4982 202.495 32.1994 201.846 32.6389C201.197 33.0784 200.454 33.2982 199.617 33.2982C198.466 33.2982 197.618 32.9005 197.074 32.1052C196.53 31.2889 196.383 30.1482 196.635 28.6831L199.46 12.5461C199.586 11.8345 199.628 11.4159 199.586 11.2903C199.544 11.1438 199.366 11.0496 199.052 11.0078L197.357 10.788Z" fill="#125D56"/>
<path d="M193.6 25.481L193.475 26.1403C193.035 28.4426 192.114 30.2426 190.712 31.5402C189.331 32.817 187.52 33.4553 185.281 33.4553C183.753 33.4553 182.497 33.0786 181.513 32.3251C180.53 31.5716 179.849 30.5461 179.473 29.2484C179.096 27.9507 179.054 26.4961 179.347 24.8845L179.473 24.2252C179.912 21.9229 180.823 20.1334 182.204 18.8566C183.606 17.559 185.417 16.9102 187.635 16.9102C189.184 16.9102 190.45 17.2974 191.434 18.0718C192.439 18.8253 193.129 19.8508 193.506 21.1485C193.883 22.4252 193.914 23.8694 193.6 25.481ZM189.896 24.5391C190.335 22.1741 190.325 20.4997 189.864 19.5159C189.425 18.5113 188.703 18.009 187.698 18.009C186.61 18.009 185.71 18.4799 184.998 19.4218C184.287 20.3636 183.742 21.8601 183.366 23.9112L183.02 25.8263C182.602 28.1914 182.612 29.8763 183.052 30.8809C183.512 31.8646 184.234 32.3565 185.218 32.3565C186.327 32.3565 187.238 31.8856 187.949 30.9437C188.661 30.0019 189.195 28.5054 189.55 26.4542L189.896 24.5391Z" fill="#125D56"/>
<path d="M176.753 25.481L176.627 26.1403C176.188 28.4426 175.267 30.2426 173.864 31.5402C172.483 32.817 170.673 33.4553 168.433 33.4553C166.905 33.4553 165.649 33.0786 164.666 32.3251C163.682 31.5716 163.002 30.5461 162.625 29.2484C162.248 27.9507 162.206 26.4961 162.499 24.8845L162.625 24.2252C163.065 21.9229 163.975 20.1334 165.356 18.8566C166.759 17.559 168.569 16.9102 170.788 16.9102C172.337 16.9102 173.603 17.2974 174.586 18.0718C175.591 18.8253 176.282 19.8508 176.659 21.1485C177.035 22.4252 177.067 23.8694 176.753 25.481ZM173.048 24.5391C173.488 22.1741 173.477 20.4997 173.017 19.5159C172.577 18.5113 171.855 18.009 170.85 18.009C169.762 18.009 168.862 18.4799 168.151 19.4218C167.439 20.3636 166.895 21.8601 166.518 23.9112L166.173 25.8263C165.754 28.1914 165.765 29.8763 166.204 30.8809C166.664 31.8646 167.387 32.3565 168.37 32.3565C169.48 32.3565 170.39 31.8856 171.102 30.9437C171.813 30.0019 172.347 28.5054 172.703 26.4542L173.048 24.5391Z" fill="#125D56"/>
<path d="M160.894 29.8762C160.371 31.2157 159.722 32.1471 158.947 32.6704C158.194 33.1936 157.357 33.4552 156.436 33.4552C155.243 33.4552 154.301 33.2041 153.61 32.7017C152.92 32.1994 152.449 31.5506 152.197 30.7553C151.967 29.939 151.936 29.0599 152.103 28.1181L153.516 19.8612C153.642 19.1496 153.684 18.731 153.642 18.6054C153.6 18.4589 153.422 18.3647 153.108 18.3228L151.413 18.1031L151.57 17.224H153.987L154.615 13.5822L158.351 12.8601L157.597 17.224H162.621L162.432 18.3228H157.378L155.557 28.7774C155.327 30.1169 155.316 31.0483 155.525 31.5715C155.735 32.0948 156.101 32.3564 156.624 32.3564C157.231 32.3564 157.733 32.1262 158.131 31.6657C158.529 31.2053 158.874 30.4099 159.167 29.2797L160.894 29.8762Z" fill="#125D56"/>
<path d="M0.893555 11.8366C0.893555 5.76675 5.81411 0.846191 11.8839 0.846191H12.3698C18.4396 0.846191 23.3601 5.76674 23.3601 11.8366V12.3224C23.3601 18.3922 18.4396 23.3128 12.3698 23.3128H0.893555V11.8366Z" fill="#2ED3B7"/>
<path d="M0.894043 17.1272C0.894043 15.6098 2.12418 14.3796 3.64163 14.3796H21.3569C27.4267 14.3796 32.3472 19.3002 32.3472 25.37V25.8558C32.3472 31.9257 27.4267 36.8462 21.3569 36.8462H3.64164C2.12418 36.8462 0.894043 35.6161 0.894043 34.0986V17.1272Z" fill="#53B1FD"/>
<path fill-rule="evenodd" clip-rule="evenodd" d="M0.894531 14.3796V23.3126H12.3707C17.6866 23.3126 22.1211 19.5385 23.1406 14.5236C22.5602 14.4289 21.9645 14.3796 21.3574 14.3796H0.894531Z" fill="#125D56"/>
</g>
<defs>
<clipPath id="clip0_329_4855">
<rect width="216.213" height="36" fill="white" transform="translate(0.893555 0.846191)"/>
</clipPath>
</defs>
</svg>
