<svg width="24" height="25" viewBox="0 0 24 25" fill="none" xmlns="http://www.w3.org/2000/svg">
<g clip-path="url(#clip0_329_4856)">
<g clip-path="url(#clip1_329_4856)">
<path d="M12 0.846191C5.37188 0.846191 0 6.21807 0 12.8462C0 17.9321 3.16406 22.2728 7.62656 24.0212C7.52344 23.0696 7.425 21.6165 7.66875 20.5806C7.88906 19.6431 9.075 14.6181 9.075 14.6181C9.075 14.6181 8.71406 13.9009 8.71406 12.8368C8.71406 11.1681 9.67969 9.92119 10.8844 9.92119C11.9062 9.92119 12.4031 10.6899 12.4031 11.6134C12.4031 12.6446 11.7469 14.1821 11.4094 15.6071C11.1281 16.8024 12.0094 17.7774 13.1859 17.7774C15.3187 17.7774 16.9594 15.5274 16.9594 12.2837C16.9594 9.41025 14.8969 7.39932 11.9484 7.39932C8.53594 7.39932 6.52969 9.95869 6.52969 12.6071C6.52969 13.6384 6.92812 14.7446 7.425 15.3446C7.52344 15.4618 7.5375 15.5696 7.50937 15.6868C7.42031 16.0665 7.21406 16.8821 7.17656 17.0462C7.125 17.2665 7.00313 17.3134 6.77344 17.2056C5.27344 16.5071 4.33594 14.3181 4.33594 12.5556C4.33594 8.76807 7.0875 5.29463 12.2625 5.29463C16.425 5.29463 19.6594 8.26182 19.6594 12.2274C19.6594 16.3618 17.0531 19.6899 13.4344 19.6899C12.2203 19.6899 11.0766 19.0571 10.6828 18.3118C10.6828 18.3118 10.0828 20.604 9.9375 21.1665C9.66562 22.2071 8.93437 23.5149 8.44687 24.3118C9.57187 24.6587 10.7625 24.8462 12 24.8462C18.6281 24.8462 24 19.4743 24 12.8462C24 6.21807 18.6281 0.846191 12 0.846191Z" fill="#98A2B3"/>
</g>
</g>
<defs>
<clipPath id="clip0_329_4856">
<rect width="24" height="24" fill="white" transform="translate(0 0.846191)"/>
</clipPath>
<clipPath id="clip1_329_4856">
<rect width="24" height="24" fill="white" transform="translate(0 0.846191)"/>
</clipPath>
</defs>
</svg>
