<svg width="24" height="25" viewBox="0 0 24 25" fill="none" xmlns="http://www.w3.org/2000/svg">
<g id="send-01">
<path id="Icon" d="M10.4995 14.0001L20.9995 3.50005M10.6271 14.3281L13.2552 21.0861C13.4867 21.6815 13.6025 21.9791 13.7693 22.066C13.9139 22.1414 14.0862 22.1415 14.2308 22.0663C14.3977 21.9796 14.5139 21.6821 14.7461 21.087L21.3364 4.19925C21.5461 3.66207 21.6509 3.39348 21.5935 3.22185C21.5437 3.0728 21.4268 2.95583 21.2777 2.90604C21.1061 2.84871 20.8375 2.95352 20.3003 3.16315L3.41258 9.75349C2.8175 9.98572 2.51997 10.1018 2.43326 10.2687C2.35809 10.4134 2.35819 10.5857 2.43353 10.7303C2.52043 10.8971 2.81811 11.0128 3.41345 11.2444L10.1715 13.8725C10.2923 13.9195 10.3527 13.943 10.4036 13.9793C10.4487 14.0114 10.4881 14.0509 10.5203 14.096C10.5566 14.1468 10.5801 14.2073 10.6271 14.3281Z" stroke="#0E9384" stroke-width="2" stroke-linecap="round" stroke-linejoin="round"/>
</g>
</svg>
