<svg width="24" height="25" viewBox="0 0 24 25" fill="none" xmlns="http://www.w3.org/2000/svg">
<g id="feather">
<path id="Icon" d="M16 8.49995L2 22.4999M18 15.4999H9M6.6 19.4999H13.3373C13.5818 19.4999 13.7041 19.4999 13.8192 19.4723C13.9213 19.4478 14.0188 19.4074 14.1083 19.3526C14.2092 19.2907 14.2957 19.2043 14.4686 19.0313L19.5 13.9999C19.739 13.761 19.8584 13.6415 19.9546 13.5357C22.0348 11.2473 22.0348 7.75262 19.9546 5.46418C19.8584 5.35839 19.739 5.23891 19.5 4.99995C19.261 4.76099 19.1416 4.6415 19.0358 4.54535C16.7473 2.46519 13.2527 2.46519 10.9642 4.54535C10.8584 4.6415 10.739 4.76098 10.5 4.99994L5.46863 10.0313C5.29568 10.2043 5.2092 10.2907 5.14736 10.3917C5.09253 10.4811 5.05213 10.5787 5.02763 10.6807C5 10.7958 5 10.9181 5 11.1627V17.8999C5 18.46 5 18.74 5.10899 18.9539C5.20487 19.1421 5.35785 19.2951 5.54601 19.391C5.75992 19.4999 6.03995 19.4999 6.6 19.4999Z" stroke="#0E9384" stroke-width="2" stroke-linecap="round" stroke-linejoin="round"/>
</g>
</svg>
