<svg width="24" height="25" viewBox="0 0 24 25" fill="none" xmlns="http://www.w3.org/2000/svg">
<g id="message-text-square-02">
<path id="Icon" d="M7 9H12M7 12.5H15M7 18.5V20.8355C7 21.3684 7 21.6348 7.10923 21.7716C7.20422 21.8906 7.34827 21.9599 7.50054 21.9597C7.67563 21.9595 7.88367 21.7931 8.29976 21.4602L10.6852 19.5518C11.1725 19.162 11.4162 18.9671 11.6875 18.8285C11.9282 18.7055 12.1844 18.6156 12.4492 18.5613C12.7477 18.5 13.0597 18.5 13.6837 18.5H16.2C17.8802 18.5 18.7202 18.5 19.362 18.173C19.9265 17.8854 20.3854 17.4265 20.673 16.862C21 16.2202 21 15.3802 21 13.7V8.3C21 6.61984 21 5.77976 20.673 5.13803C20.3854 4.57354 19.9265 4.1146 19.362 3.82698C18.7202 3.5 17.8802 3.5 16.2 3.5H7.8C6.11984 3.5 5.27976 3.5 4.63803 3.82698C4.07354 4.1146 3.6146 4.57354 3.32698 5.13803C3 5.77976 3 6.61984 3 8.3V14.5C3 15.43 3 15.895 3.10222 16.2765C3.37962 17.3117 4.18827 18.1204 5.22354 18.3978C5.60504 18.5 6.07003 18.5 7 18.5Z" stroke="#0E9384" stroke-width="2" stroke-linecap="round" stroke-linejoin="round"/>
</g>
</svg>
