<svg width="28" height="28" viewBox="0 0 28 28" fill="none" xmlns="http://www.w3.org/2000/svg">
<g clip-path="url(#clip0_330_4873)">
<path d="M22.1667 7.11562C21.5861 6.87451 21.125 6.41266 20.8847 5.83163L20.885 5.83516L20.0414 3.79843C19.8006 3.21751 19.3391 2.75598 18.7581 2.51533C18.1772 2.27469 17.5245 2.27464 16.9435 2.5152L14.9066 3.35531C14.3259 3.59628 13.6732 3.59677 13.0922 3.35668L11.0576 2.51389C10.4765 2.2732 9.82366 2.2732 9.2426 2.51389C8.66155 2.75458 8.1999 3.21624 7.95922 3.79732L7.11586 5.83344C6.87458 6.41344 6.41303 6.87401 5.83252 7.11404L3.79794 7.95683C3.51007 8.07596 3.2485 8.25065 3.02817 8.47092C2.80784 8.69118 2.63308 8.95271 2.51385 9.24055C2.39463 9.52838 2.33329 9.83689 2.33334 10.1484C2.33339 10.46 2.39483 10.7685 2.51414 11.0563L3.35569 13.0939C3.59665 13.6746 3.59714 14.3273 3.35705 14.9083L2.5143 16.943C2.27411 17.524 2.27444 18.1766 2.51521 18.7573C2.75598 19.3381 3.21748 19.7994 3.79828 20.04L5.83433 20.8834C6.41498 21.1245 6.87611 21.5864 7.11635 22.1674L7.95996 24.2041C8.2008 24.7846 8.66219 25.2457 9.24277 25.4862C9.82336 25.7267 10.4757 25.7269 11.0564 25.4868L13.0924 24.6446C13.6731 24.4036 14.3258 24.4031 14.9068 24.6432L16.9414 25.486C17.5225 25.7267 18.1753 25.7267 18.7564 25.486C19.3375 25.2453 19.7991 24.7836 20.0398 24.2026L20.8831 22.1664C21.1243 21.5858 21.5861 21.1246 22.1671 20.8844L24.2017 20.0416C24.4895 19.9225 24.7511 19.7478 24.9714 19.5275C25.1918 19.3072 25.3665 19.0457 25.4858 18.7579C25.605 18.47 25.6663 18.1615 25.6663 17.85C25.6662 17.5384 25.6048 17.2299 25.4855 16.9421L24.6442 14.9081C24.4023 14.327 24.4026 13.6735 24.6434 13.0921L25.4862 11.0575C25.7268 10.4764 25.7268 9.82352 25.4862 9.24244C25.2455 8.66137 24.7838 8.1997 24.2028 7.95901L22.1667 7.11562Z" fill="white" stroke="white" stroke-width="2" stroke-linecap="round" stroke-linejoin="round"/>
<path d="M10.5 14L12.8333 16.3334L18.0833 11.0834" stroke="black" stroke-width="2" stroke-linecap="round" stroke-linejoin="round"/>
</g>
<defs>
<clipPath id="clip0_330_4873">
<rect width="28" height="28" fill="white"/>
</clipPath>
</defs>
</svg>
