<svg width="24" height="25" viewBox="0 0 24 25" fill="none" xmlns="http://www.w3.org/2000/svg">
<g id="lock-keyhole-circle">
<rect width="24" height="24" transform="translate(0 0.5)" fill="white"/>
<g id="Icon">
<path d="M12 22.5C17.5228 22.5 22 18.0228 22 12.5C22 6.97715 17.5228 2.5 12 2.5C6.47715 2.5 2 6.97715 2 12.5C2 18.0228 6.47715 22.5 12 22.5Z" stroke="#0E9384" stroke-width="2" stroke-linecap="round" stroke-linejoin="round"/>
<path d="M13.7316 13.6947C13.661 13.4831 13.6257 13.3772 13.6276 13.2907C13.6295 13.1996 13.6417 13.1519 13.6836 13.0711C13.7235 12.9942 13.83 12.895 14.0432 12.6967C14.6318 12.149 15 11.3675 15 10.5C15 8.84315 13.6569 7.5 12 7.5C10.3431 7.5 9 8.84315 9 10.5C9 11.3675 9.36818 12.149 9.95681 12.6967C10.17 12.895 10.2765 12.9942 10.3164 13.0711C10.3583 13.1519 10.3705 13.1996 10.3724 13.2907C10.3743 13.3772 10.339 13.4831 10.2684 13.6947L9.35099 16.447C9.23249 16.8025 9.17324 16.9803 9.20877 17.1218C9.23987 17.2456 9.31718 17.3529 9.42484 17.4216C9.54783 17.5 9.7352 17.5 10.1099 17.5H13.8901C14.2648 17.5 14.4522 17.5 14.5752 17.4216C14.6828 17.3529 14.7601 17.2456 14.7912 17.1218C14.8268 16.9803 14.7675 16.8025 14.649 16.447L13.7316 13.6947Z" stroke="#0E9384" stroke-width="2" stroke-linecap="round" stroke-linejoin="round"/>
</g>
</g>
</svg>
