<svg width="24" height="25" viewBox="0 0 24 25" fill="none" xmlns="http://www.w3.org/2000/svg">
<g clip-path="url(#clip0_329_4857)">
<g clip-path="url(#clip1_329_4857)">
<path d="M12 3.00713C15.2063 3.00713 15.5859 3.02119 16.8469 3.07744C18.0188 3.129 18.6516 3.32588 19.0734 3.48994C19.6313 3.70557 20.0344 3.96807 20.4516 4.38525C20.8734 4.80713 21.1313 5.20557 21.3469 5.76338C21.5109 6.18525 21.7078 6.82275 21.7594 7.98994C21.8156 9.25557 21.8297 9.63525 21.8297 12.8368C21.8297 16.0431 21.8156 16.4228 21.7594 17.6837C21.7078 18.8556 21.5109 19.4884 21.3469 19.9103C21.1313 20.4681 20.8688 20.8712 20.4516 21.2884C20.0297 21.7103 19.6313 21.9681 19.0734 22.1837C18.6516 22.3478 18.0141 22.5446 16.8469 22.5962C15.5813 22.6524 15.2016 22.6665 12 22.6665C8.79375 22.6665 8.41406 22.6524 7.15313 22.5962C5.98125 22.5446 5.34844 22.3478 4.92656 22.1837C4.36875 21.9681 3.96563 21.7056 3.54844 21.2884C3.12656 20.8665 2.86875 20.4681 2.65313 19.9103C2.48906 19.4884 2.29219 18.8509 2.24063 17.6837C2.18438 16.4181 2.17031 16.0384 2.17031 12.8368C2.17031 9.63057 2.18438 9.25088 2.24063 7.98994C2.29219 6.81807 2.48906 6.18525 2.65313 5.76338C2.86875 5.20557 3.13125 4.80244 3.54844 4.38525C3.97031 3.96338 4.36875 3.70557 4.92656 3.48994C5.34844 3.32588 5.98594 3.129 7.15313 3.07744C8.41406 3.02119 8.79375 3.00713 12 3.00713ZM12 0.846191C8.74219 0.846191 8.33438 0.860254 7.05469 0.916504C5.77969 0.972754 4.90313 1.179 4.14375 1.47432C3.35156 1.78369 2.68125 2.1915 2.01563 2.86182C1.34531 3.52744 0.9375 4.19775 0.628125 4.98525C0.332812 5.74932 0.126563 6.62119 0.0703125 7.89619C0.0140625 9.18057 0 9.58838 0 12.8462C0 16.104 0.0140625 16.5118 0.0703125 17.7915C0.126563 19.0665 0.332812 19.9431 0.628125 20.7024C0.9375 21.4946 1.34531 22.1649 2.01563 22.8306C2.68125 23.4962 3.35156 23.9087 4.13906 24.2134C4.90313 24.5087 5.775 24.7149 7.05 24.7712C8.32969 24.8274 8.7375 24.8415 11.9953 24.8415C15.2531 24.8415 15.6609 24.8274 16.9406 24.7712C18.2156 24.7149 19.0922 24.5087 19.8516 24.2134C20.6391 23.9087 21.3094 23.4962 21.975 22.8306C22.6406 22.1649 23.0531 21.4946 23.3578 20.7071C23.6531 19.9431 23.8594 19.0712 23.9156 17.7962C23.9719 16.5165 23.9859 16.1087 23.9859 12.8509C23.9859 9.59307 23.9719 9.18525 23.9156 7.90557C23.8594 6.63057 23.6531 5.754 23.3578 4.99463C23.0625 4.19775 22.6547 3.52744 21.9844 2.86182C21.3188 2.19619 20.6484 1.78369 19.8609 1.479C19.0969 1.18369 18.225 0.977441 16.95 0.921191C15.6656 0.860254 15.2578 0.846191 12 0.846191Z" fill="#98A2B3"/>
<path d="M12 6.68213C8.59688 6.68213 5.83594 9.44307 5.83594 12.8462C5.83594 16.2493 8.59688 19.0103 12 19.0103C15.4031 19.0103 18.1641 16.2493 18.1641 12.8462C18.1641 9.44307 15.4031 6.68213 12 6.68213ZM12 16.8446C9.79219 16.8446 8.00156 15.054 8.00156 12.8462C8.00156 10.6384 9.79219 8.84775 12 8.84775C14.2078 8.84775 15.9984 10.6384 15.9984 12.8462C15.9984 15.054 14.2078 16.8446 12 16.8446Z" fill="#98A2B3"/>
<path d="M19.8469 6.43833C19.8469 7.23521 19.2 7.8774 18.4078 7.8774C17.6109 7.8774 16.9688 7.23052 16.9688 6.43833C16.9688 5.64146 17.6156 4.99927 18.4078 4.99927C19.2 4.99927 19.8469 5.64614 19.8469 6.43833Z" fill="#98A2B3"/>
</g>
</g>
<defs>
<clipPath id="clip0_329_4857">
<rect width="24" height="24" fill="white" transform="translate(0 0.846191)"/>
</clipPath>
<clipPath id="clip1_329_4857">
<rect width="24" height="24" fill="white" transform="translate(0 0.846191)"/>
</clipPath>
</defs>
</svg>
