<svg width="221" height="112" viewBox="0 0 221 112" fill="none" xmlns="http://www.w3.org/2000/svg">
<g clip-path="url(#clip0_10535_1349)">
<path d="M29.1722 65.371C24.0933 65.371 20.4253 61.3951 20.4253 55.999C20.4253 50.6029 24.0933 46.6269 29.1722 46.6269C33.4046 46.6269 36.6775 49.3533 37.6368 53.4428H43.6751C42.5463 46.2292 36.7906 41.2307 29.1722 41.2307C20.7074 41.2307 14.5 47.4789 14.5 55.999C14.5 64.519 20.7074 70.7669 29.1722 70.7669C36.7906 70.7669 42.5463 65.7687 43.6751 58.555H37.6368C36.6775 62.5877 33.4046 65.371 29.1722 65.371Z" fill="black"/>
<path d="M51.6357 70.201L53.9494 64.5208H68.8474L71.1611 70.201H77.2557L65.6872 41.8005H57.2225L45.6542 70.201H51.6357ZM56.0376 59.4088L61.1163 46.9127H61.6805L66.7594 59.4088H56.0376Z" fill="black"/>
<path d="M94.453 65.3732C89.8824 65.3732 86.5527 61.6813 86.5527 56.5691V41.8009H80.9092V56.5691C80.9092 64.7482 86.6656 70.7692 94.453 70.7692C102.241 70.7692 107.997 64.7482 107.997 56.5691V41.8009H102.353V56.5691C102.353 61.6813 99.0241 65.3732 94.453 65.3732Z" fill="black"/>
<path d="M128.03 65.655C123.289 65.655 120.129 64.0646 120.129 61.679H114.486C114.486 67.1317 119.904 70.7669 128.03 70.7669C136.833 70.7669 141.573 67.5294 141.573 61.5085C141.573 55.7148 137.623 53.1589 128.312 53.1589C122.951 53.1589 120.694 52.3069 120.694 50.1485C120.694 47.6493 123.233 46.3427 128.03 46.3427C132.431 46.3427 135.366 47.9332 135.366 50.3187H141.009C141.009 44.8659 135.817 41.2307 128.03 41.2307C119.565 41.2307 115.05 44.3548 115.05 50.1485C115.05 55.8853 118.888 58.271 127.804 58.271C133.447 58.271 135.93 59.2365 135.93 61.5085C135.93 64.1783 133.165 65.655 128.03 65.655Z" fill="black"/>
<path d="M151.226 70.2015L153.542 64.5212H168.438L170.752 70.2015H176.848L165.277 41.8009H156.815L145.245 70.2015H151.226ZM155.63 59.4092L160.709 46.9131H161.271L166.35 59.4092H155.63Z" fill="black"/>
<path d="M182.214 70.2015H204.787V65.0892H187.858V41.8009H182.214V70.2015Z" fill="black"/>
</g>
<defs>
<clipPath id="clip0_10535_1349">
<rect width="192" height="29.5385" fill="white" transform="translate(14.5 41.2307)"/>
</clipPath>
</defs>
</svg>
