<svg width="221" height="112" viewBox="0 0 221 112" fill="none" xmlns="http://www.w3.org/2000/svg">
<g clip-path="url(#clip0_10535_1082)">
<path d="M55.5889 67.8577V45.4698H66.3907C67.8691 45.4698 69.1665 45.7715 70.2527 46.3448C71.3691 46.9181 72.2441 47.7327 72.8475 48.7586C73.4812 49.7844 73.7829 50.9612 73.7829 52.3491C73.7829 53.6767 73.4812 54.8534 72.8475 55.8793C72.2139 56.9051 71.3389 57.6896 70.2225 58.2629C69.1062 58.8362 67.8088 59.1379 66.3605 59.1379H59.5717V67.8577H55.5889ZM59.6019 55.7586H65.9682C67.1148 55.7586 68.0501 55.4569 68.7441 54.8232C69.4381 54.1896 69.8001 53.375 69.8001 52.3491C69.8001 51.2931 69.4381 50.4784 68.7441 49.875C68.0501 49.2715 67.1148 48.9698 65.9682 48.9698H59.6019V55.7586Z" fill="#020D23"/>
<path d="M79.0932 67.8577V45.4698H83.1062V67.8577H79.0932Z" fill="#020D23"/>
<path d="M101.029 68.2198C99.3691 68.2198 97.8303 67.9181 96.4122 67.3448C94.9941 66.7715 93.757 65.9267 92.6708 64.8707C91.5846 63.8146 90.7398 62.5775 90.1363 61.1896C89.5329 59.8017 89.2312 58.2931 89.2312 56.6638C89.2312 55.0344 89.5329 53.5258 90.1363 52.1379C90.7398 50.75 91.5544 49.5129 92.6407 48.4569C93.6967 47.4008 94.9639 46.5862 96.382 45.9827C97.8001 45.4095 99.3389 45.1077 100.998 45.1077C102.809 45.1077 104.529 45.4698 106.128 46.1638C107.727 46.8577 109.085 47.8534 110.171 49.1508L107.395 51.7457C106.61 50.8103 105.645 50.0862 104.559 49.5732C103.442 49.0603 102.266 48.8189 100.998 48.8189C99.9122 48.8189 98.9165 49.0301 97.9812 49.4224C97.0458 49.8146 96.2312 50.3577 95.5372 51.0819C94.8432 51.7758 94.3001 52.6207 93.9079 53.5862C93.5157 54.5517 93.3346 55.5776 93.3346 56.7241C93.3346 57.8405 93.5157 58.8663 93.9079 59.8319C94.3001 60.7974 94.8432 61.6422 95.5674 62.3663C96.2915 63.0905 97.1062 63.6336 98.0415 64.0258C98.9769 64.4181 100.003 64.6293 101.119 64.6293C102.296 64.6293 103.352 64.3879 104.348 63.9353C105.313 63.4526 106.128 62.8189 106.761 61.9741C107.395 61.1293 107.787 60.1638 107.968 59.0775H100.968V55.5474H112.223V56.8146C112.223 58.4439 111.951 59.9526 111.378 61.3103C110.804 62.6982 110.02 63.9051 109.054 64.931C108.059 65.9569 106.882 66.7413 105.524 67.3146C104.076 67.9181 102.598 68.2198 101.029 68.2198Z" fill="#020D23"/>
<path d="M118.016 67.8577V45.4698H123.266L129.813 58.6551L136.391 45.4698H141.61V67.8577H137.869V50.4784L129.753 66.2586L121.727 50.4181V67.8577H118.016Z" fill="#020D23"/>
<path d="M148.731 67.8577V45.4698H165.598V48.9698H152.744V54.8836H161.192V58.2629H152.744V64.3577H165.748V67.8577H148.731Z" fill="#020D23"/>
<path d="M171.36 67.8577V45.4698H175.192L186.99 61.0086V45.4698H190.761V67.8577H187.231L175.102 51.806V67.8577H171.36Z" fill="#020D23"/>
<path d="M203.766 67.8577V49.0301H196.042V45.4698H215.442V49.0301H207.718V67.8577H203.766Z" fill="#020D23"/>
<path d="M26.5329 67.7069C19.9855 67.7672 17.5717 58.9267 23.2139 55.6379C25.7484 54.1896 34.3173 49.2112 36.9725 47.7026C39.4467 54.7026 36.3691 63.0302 29.9423 66.7414C28.9768 67.3448 27.7096 67.7069 26.5329 67.7069Z" fill="#F34F77"/>
<path d="M26.5028 50.9612C25.4467 50.9612 24.3907 50.6896 23.4554 50.2069L23.214 50.056L9.54587 42.181C12.0804 39.2845 15.5502 37.4138 19.3217 36.8707C20.1062 36.75 20.8907 36.6896 21.6752 36.6896C24.4209 36.6896 27.1364 37.3836 29.4898 38.7112C29.5502 38.7414 30.0329 39.0431 30.1235 39.0733C32.9295 40.9741 33.8045 44.7457 32.1148 47.7026C30.9683 49.7241 28.826 50.9612 26.5028 50.9612Z" fill="#FFC368"/>
<path d="M18.507 75.3103C9.87772 71.2069 4.50702 61.4612 5.65358 51.9569C5.74409 51.0215 6.01564 50.2069 6.46823 49.4827C8.51996 45.862 13.951 45.2888 16.6967 48.4267C17.8432 49.6638 18.507 51.2931 18.507 53.0129V75.3103Z" fill="#0355F3"/>
</g>
<defs>
<clipPath id="clip0_10535_1082">
<rect width="210" height="38.6207" fill="white" transform="translate(5.5 36.6896)"/>
</clipPath>
</defs>
</svg>
